<svg xmlns="http://www.w3.org/2000/svg" width="313" height="144" viewBox="0 0 313 144">
    <defs>
        <linearGradient id="prefix__a" x1="50%" x2="50%" y1="0%" y2="90.481%">
            <stop offset="0%" stop-color="#FFF"/>
            <stop offset="100%" stop-color="#FFF" stop-opacity=".02"/>
        </linearGradient>
    </defs>
    <g fill="none">
        <path fill="url(#prefix__a)" d="M77.95 141.607V114.68h17.19V97.53H77.95V2.393H48.97L0 96.133v18.548h57.763v26.926H77.95zM57.763 97.529H17.59l37.576-75.59h2.598v75.59zM156.7 144c31.58 0 45.37-20.742 45.37-72 0-51.258-13.79-72-45.37-72s-45.371 20.742-45.371 72c0 51.258 13.791 72 45.37 72zm0-18.15c-16.79 0-22.786-11.368-22.786-34.504V52.654c0-23.136 5.997-34.504 22.786-34.504 16.79 0 22.785 11.368 22.785 34.504v38.692c0 23.136-5.996 34.504-22.785 34.504zm139.111 15.757V114.68H313V97.53h-17.189V2.393H266.83l-48.97 93.74v18.548h57.764v26.926h20.187zm-20.187-44.078H235.45l37.576-75.59h2.598v75.59z"/>
        <g transform="translate(250 88)">
            <circle cx="24.05" cy="29.25" r="16.25" fill="#00ACAD"/>
            <path fill="#00ACAD" d="M29.9 40.3H35.1V49.4H29.9z" transform="rotate(169.739 32.5 44.85)"/>
            <path fill="#00ACAD" d="M19.5 42.9H24.7V52H19.5z" transform="rotate(169.739 22.1 47.45)"/>
            <ellipse cx="22.1" cy="52" fill="#00ACAD" rx="3.9" ry="1.3" transform="rotate(-40.261 22.1 52)"/>
            <ellipse cx="31.2" cy="50.7" fill="#00ACAD" rx="3.9" ry="1.3" transform="rotate(-40.261 31.2 50.7)"/>
            <circle cx="22.75" cy="25.35" r="5.85" fill="#FFF"/>
            <circle cx="20.15" cy="22.75" r="1.95" fill="#00ACAD"/>
            <path fill="#AAE6E6" d="M37.691 11.45C37.942 5.402 32.621.281 25.805.01c-6.816-.27-12.545 4.41-12.795 10.457-.251 6.046 4.486 7.42 11.302 7.69 6.816.272 13.129-.662 13.38-6.709z"/>
            <ellipse cx="9.1" cy="26.65" fill="#00ACAD" rx="2.6" ry="8.45" transform="rotate(-77.09 9.1 26.65)"/>
            <ellipse cx="41.6" cy="31.85" fill="#00ACAD" rx="2.6" ry="8.45" transform="rotate(-77.09 41.6 31.85)"/>
            <path fill="#FFF" d="M28.537 35.793c.25 1.345-.253 2.717-1.317 3.6-1.064.884-2.529 1.144-3.842.682-1.313-.462-2.274-1.575-2.522-2.92-.384-2.077 1.256-2.812 3.377-3.189 2.121-.376 3.92-.25 4.304 1.827z"/>
        </g>
    </g>
</svg>
