<svg height="52" viewBox="0 0 52 52" width="52" xmlns="http://www.w3.org/2000/svg"><g fill="none" fill-rule="evenodd" transform="translate(-7 -7)"><circle cx="33" cy="33" fill="#636fc0" r="24" stroke="#3c4cbb" stroke-width="3"/><path d="m12.215 45c6.628 11.479 21.306 15.412 32.785 8.785 11.479-6.628 15.412-21.306 8.785-32.785-6.628-11.479-21.306-15.412-32.785-8.785-11.479 6.628-15.412 21.306-8.785 32.785z" stroke="#fff" stroke-dasharray="100 999" stroke-width="3"/><path d="m23.612 38.144c1.716 0 2.856-1.152 2.856-2.808 0-1.584-1.044-2.58-2.472-2.58-1.032 0-1.608.54-1.992 1.212l-.06-.024c.432-1.884 1.464-2.988 3.3-4.32h-1.524c-1.356.9-2.988 2.82-2.988 5.28 0 2.004 1.092 3.24 2.88 3.24zm-.012-.972c-1.044 0-1.668-.6-1.668-1.68v-.108c0-1.08.624-1.68 1.668-1.68s1.668.6 1.668 1.68v.108c0 1.08-.624 1.68-1.668 1.68zm7.2.972c1.92 0 2.94-1.044 2.94-2.424 0-1.128-.672-1.788-1.68-2.064v-.096c.864-.3 1.428-.996 1.428-1.956 0-1.272-.984-2.124-2.688-2.124s-2.688.852-2.688 2.124c0 .96.564 1.656 1.428 1.956v.096c-1.008.276-1.68.936-1.68 2.064 0 1.38 1.02 2.424 2.94 2.424zm0-4.992c-.984 0-1.524-.444-1.524-1.26v-.18c0-.816.54-1.26 1.524-1.26s1.524.444 1.524 1.26v.18c0 .816-.54 1.26-1.524 1.26zm0 4.02c-1.092 0-1.716-.528-1.716-1.416v-.252c0-.888.624-1.416 1.716-1.416s1.716.528 1.716 1.416v.252c0 .888-.624 1.416-1.716 1.416zm6.3-2.94c1.248 0 1.956-.84 1.956-2.376s-.708-2.376-1.956-2.376-1.956.84-1.956 2.376.708 2.376 1.956 2.376zm.552 3.768 5.808-8.376h-1.056l-5.808 8.376zm-.552-4.476c-.648 0-.96-.444-.96-1.32v-.696c0-.876.312-1.32.96-1.32s.96.444.96 1.32v.696c0 .876-.312 1.32-.96 1.32zm5.856 4.62c1.248 0 1.956-.84 1.956-2.376s-.708-2.376-1.956-2.376-1.956.84-1.956 2.376.708 2.376 1.956 2.376zm0-.708c-.648 0-.96-.444-.96-1.32v-.696c0-.876.312-1.32.96-1.32s.96.444.96 1.32v.696c0 .876-.312 1.32-.96 1.32z" fill="#fff" fill-rule="nonzero"/></g></svg>