<svg height="48" viewBox="0 0 48 48" width="48" xmlns="http://www.w3.org/2000/svg"><g fill="none" fill-rule="evenodd"><circle cx="24" cy="24" fill="#f3a841" r="22.5" stroke="#bf6e00" stroke-width="3"/><path d="m21.757 22.623c-.683 1.274-1.074 2.717-1.074 4.251 0 4.69 3.61 8.563 8.255 9.126h-14.798c-2.916 0-3.124-2.286-3.139-2.612l-.001-.039c0-5.854 4.795-10.603 10.757-10.726zm.233-12.623c3.037 0 5.495 2.405 5.495 5.369 0 1.105-.342 2.13-.928 2.982-1.267.505-2.392 1.273-3.314 2.234-.404.093-.82.153-1.253.153-3.035 0-5.495-2.404-5.495-5.369 0-2.964 2.46-5.369 5.495-5.369z" fill="#bf6e00" fill-rule="nonzero"/><path d="m6 0 6 3.994v6.656l-6-3.994z" fill="#bf6e00" transform="translate(25 19)"/><path d="m0 0 6 3.994v6.656l-6-3.994z" fill="#975700" transform="matrix(-1 0 0 1 31 19)"/><path d="m6 6.6 6 3.96-6 4.29-6-4.29zm0 0 6-2.64-6-3.96z" fill="#975700" transform="translate(25 19)"/><g fill="#bf6e00"><path d="m0 6.6 6-2.64-6-3.96z" transform="matrix(-1 0 0 1 31 19)"/><path d="m6 6.6v8.25l-6-4.29z" transform="translate(25 19)"/></g></g></svg>