<svg height="48" viewBox="0 0 48 48" width="48" xmlns="http://www.w3.org/2000/svg"><g fill="none" fill-rule="evenodd"><circle cx="24" cy="24" fill="#2e88ff" r="22.5" stroke="#0f53ad" stroke-width="3"/><path d="m24.006 23.49c-.673 0-1.219.546-1.219 1.219.058 3.669-.413 7.206-1.407 10.743-.138.493.11 1.548 1.174 1.548.533 0 1.022-.351 1.173-.89.687-2.433 1.576-6.368 1.497-11.401 0-.673-.545-1.219-1.218-1.219zm-.044-4.15c-3.11-.004-5.282 2.39-5.239 5.133.039 2.435-.19 4.87-.679 7.24-.136.658.288 1.304.947 1.44.663.135 1.304-.288 1.44-.947.525-2.544.77-5.159.73-7.77-.02-1.319 1.012-2.666 2.765-2.659 1.59.024 2.902 1.287 2.926 2.817.04 2.44-.143 4.892-.539 7.29-.11.663.34 1.29 1.004 1.4 1.014.17 1.361-.766 1.4-1.004.42-2.54.613-5.14.573-7.724-.045-2.834-2.435-5.174-5.328-5.216zm-5.62-1.005c-.524-.423-1.29-.345-1.715.177-1.301 1.6-2 3.62-1.968 5.688.03 1.908-.126 3.822-.463 5.69-.119.662.32 1.296.983 1.416 1.022.178 1.375-.752 1.417-.983.365-2.023.533-4.096.5-6.162-.023-1.517.468-2.939 1.422-4.111.424-.522.345-1.29-.177-1.715zm5.558-3.165c-.782-.02-1.567.073-2.325.253-.654.155-1.06.811-.905 1.467.155.654.812 1.057 1.467.905.561-.133 1.141-.191 1.727-.187 3.83.057 6.994 3.123 7.052 6.834.03 1.923-.065 3.865-.283 5.77-.076.669.404 1.274 1.072 1.35.849.099 1.295-.603 1.35-1.072.23-2.02.33-4.053.299-6.086-.08-5.015-4.32-9.158-9.454-9.234zm12.8 6.168c-.145-.657-.787-1.077-1.452-.928-.657.145-1.073.795-.927 1.453.239 1.087.249 1.9.238 3.128-.005.674.536 1.223 1.209 1.229h.01c.669 0 1.213-.54 1.219-1.209.009-1.126.02-2.24-.296-3.673zm-2.037-4.607c-2.473-3.524-6.52-5.665-10.825-5.73-3.544-.043-6.822 1.264-9.26 3.703-2.355 2.358-3.624 5.49-3.571 8.821l-.007 1.09c-.02.673.509 1.235 1.182 1.254l.036.001c.656 0 1.198-.523 1.218-1.183l.008-1.2c-.042-2.666.973-5.173 2.858-7.059 1.968-1.97 4.638-3.03 7.5-2.989 3.526.052 6.841 1.806 8.867 4.692.386.551 1.145.683 1.697.297.55-.387.683-1.147.296-1.697z" fill="#0f53ad" fill-rule="nonzero"/></g></svg>