<svg height="53" viewBox="0 0 57 53" width="57" xmlns="http://www.w3.org/2000/svg"><g fill="none" fill-rule="evenodd"><path d="m1 28h1c.552 0 1 .448 1 1v24h-3v-24c0-.552.448-1 1-1zm9-13h1c.552 0 1 .448 1 1v37h-3v-37c0-.552.448-1 1-1zm9 17h1c.552 0 1 .448 1 1v20h-3v-20c0-.552.448-1 1-1z" fill="#008788"/><path d="m28 16h1c.552 0 1 .448 1 1v36h-3v-36c0-.552.448-1 1-1z" fill="#fff"/><path d="m37 22h1c.552 0 1 .448 1 1v30h-3v-30c0-.552.448-1 1-1zm9-6h1c.552 0 1 .448 1 1v36h-3v-36c0-.552.448-1 1-1zm9 9h1c.552 0 1 .448 1 1v27h-3v-27c0-.552.448-1 1-1z" fill="#008788"/><g transform="translate(17.5)"><rect fill="#008788" height="12" rx="1" width="22"/><path d="m8 14h6l-3-3z" fill="#008788" transform="matrix(-1 0 0 -1 22 25)"/><text fill="#fff" font-family="IBM Plex Sans" font-size="10" font-weight="400"><tspan x="2" y="10">445</tspan></text></g></g></svg>