<svg xmlns="http://www.w3.org/2000/svg" width="125" height="30" viewBox="0 0 125 30">
    <g fill="none" fill-rule="evenodd">
        <path fill="#ffffff" fill-rule="nonzero" d="M36.026 23v-6.204h3.74c2.618 0 3.982-1.628 3.982-4.576 0-2.948-1.364-4.576-3.982-4.576h-6.072V23h2.332zm3.542-8.272h-3.542V9.712h3.542c1.1 0 1.694.55 1.694 1.804v1.408c0 1.254-.594 1.804-1.694 1.804zM46.234 23l1.188-4.246h5.17L53.78 23h2.354l-4.62-15.356h-2.97L43.946 23h2.288zm5.808-6.16h-4.048L49.358 12l.484-2.244h.286L50.612 12l1.43 4.84zM60.644 23v-9.174l-.176-2.904h.286l1.166 2.86L66.496 23h2.706V7.644h-2.244v9.174l.176 2.904h-.286l-1.188-2.86-4.576-9.218H58.4V23h2.244zm17.116 0c3.63 0 5.742-2.266 5.742-7.678S81.39 7.644 77.76 7.644H72.7V23h5.06zm0-2.046h-2.728V9.69h2.728c2.002 0 3.234 1.342 3.234 3.85v3.564c0 2.508-1.232 3.85-3.234 3.85zm13.97 2.31c3.696 0 5.962-2.354 5.962-7.942S95.426 7.38 91.73 7.38c-3.696 0-5.962 2.354-5.962 7.942s2.266 7.942 5.962 7.942zm0-2.068c-2.2 0-3.454-1.518-3.454-4.026v-3.696c0-2.508 1.254-4.026 3.454-4.026s3.454 1.518 3.454 4.026v3.696c0 2.508-1.254 4.026-3.454 4.026zM102.906 23v-6.27h2.75l2.662 6.27h2.596l-2.926-6.446c1.738-.484 2.64-1.98 2.64-4.356 0-2.926-1.364-4.554-3.982-4.554h-6.072V23h2.332zm3.542-8.228h-3.542V9.69h3.542c1.1 0 1.694.55 1.694 1.826v1.43c0 1.276-.594 1.826-1.694 1.826zM114.764 23l1.188-4.246h5.17L122.31 23h2.354l-4.62-15.356h-2.97L112.476 23h2.288zm5.808-6.16h-4.048l1.364-4.84.484-2.244h.286l.484 2.244 1.43 4.84z"/>
        <path fill="#4F9BFF" d="M12 0L24 7.987 24 21.3 12 13.312z"/>
        <path fill="#00ACAD" d="M0 0L12 7.987 12 21.3 0 13.312z" transform="matrix(-1 0 0 1 12 0)"/>
        <path fill="#FFBB5E" d="M12 13.2L24 21.12 12 29.7 0 21.12z"/>
        <path fill="#2E88FF" d="M12 13.2L24 7.92 12 0z"/>
        <path fill="#00CCCD" d="M0 13.2L12 7.92 0 0z" transform="matrix(-1 0 0 1 12 0)"/>
        <path fill="#F3A841" d="M12 13.2L12 29.7 0 21.12z"/>
    </g>
</svg>
