<svg xmlns="http://www.w3.org/2000/svg" xmlns:xlink="http://www.w3.org/1999/xlink" width="367" height="146" viewBox="0 0 367 146">
    <defs>
        <linearGradient id="prefix__b" x1="50%" x2="50%" y1="0%" y2="100%">
            <stop offset="0%" stop-color="#191A1C"/>
            <stop offset="100%" stop-color="#191A1C" stop-opacity=".02"/>
        </linearGradient>
        <path id="prefix__a" d="M484.82 186v-8.37h-26.91v-19.44h24.3v-8.28h-24.3v-18.36h26.91v-8.37h-36.45V186h36.45zm21.78 0v-25.65h11.25L528.74 186h10.62l-11.97-26.37c7.11-1.98 10.8-8.1 10.8-17.82 0-11.97-5.58-18.63-16.29-18.63h-24.84V186h9.54zm14.49-33.66H506.6v-20.79h14.49c4.5 0 6.93 2.25 6.93 7.47v5.85c0 5.22-2.43 7.47-6.93 7.47zM560.33 186v-25.65h11.25L582.47 186h10.62l-11.97-26.37c7.11-1.98 10.8-8.1 10.8-17.82 0-11.97-5.58-18.63-16.29-18.63h-24.84V186h9.54zm14.49-33.66h-14.49v-20.79h14.49c4.5 0 6.93 2.25 6.93 7.47v5.85c0 5.22-2.43 7.47-6.93 7.47zm50.76 34.74c15.12 0 24.39-9.63 24.39-32.49s-9.27-32.49-24.39-32.49c-15.12 0-24.39 9.63-24.39 32.49s9.27 32.49 24.39 32.49zm0-8.46c-9 0-14.13-6.21-14.13-16.47v-15.12c0-10.26 5.13-16.47 14.13-16.47s14.13 6.21 14.13 16.47v15.12c0 10.26-5.13 16.47-14.13 16.47zM671.3 186v-25.65h11.25L693.44 186h10.62l-11.97-26.37c7.11-1.98 10.8-8.1 10.8-17.82 0-11.97-5.58-18.63-16.29-18.63h-24.84V186h9.54zm14.49-33.66H671.3v-20.79h14.49c4.5 0 6.93 2.25 6.93 7.47v5.85c0 5.22-2.43 7.47-6.93 7.47zM415.97 267.08c15.12 0 24.39-9.63 24.39-32.49s-9.27-32.49-24.39-32.49c-15.12 0-24.39 9.63-24.39 32.49s9.27 32.49 24.39 32.49zm0-8.46c-9 0-14.13-6.21-14.13-16.47v-15.12c0-10.26 5.13-16.47 14.13-16.47s14.13 6.21 14.13 16.47v15.12c0 10.26-5.13 16.47-14.13 16.47zm57.42 8.46c10.71 0 16.92-5.13 20.88-14.31l-7.92-4.68c-2.25 7.38-6.3 10.62-12.96 10.62-8.46 0-13.5-6.3-13.5-16.56v-15.12c0-10.26 5.04-16.56 13.5-16.56 6.57 0 10.26 2.97 12.42 9.99l8.1-4.5c-3.87-9.27-9.81-13.86-20.52-13.86-14.58 0-23.76 9.63-23.76 32.49s9.18 32.49 23.76 32.49zm51.03 0c10.71 0 16.92-5.13 20.88-14.31l-7.92-4.68c-2.25 7.38-6.3 10.62-12.96 10.62-8.46 0-13.5-6.3-13.5-16.56v-15.12c0-10.26 5.04-16.56 13.5-16.56 6.57 0 10.26 2.97 12.42 9.99l8.1-4.5c-3.87-9.27-9.81-13.86-20.52-13.86-14.58 0-23.76 9.63-23.76 32.49s9.18 32.49 23.76 32.49zm51.66 0c15.84 0 21.42-7.65 21.42-24.75v-39.15h-9.54v40.68c0 9.99-3.06 14.76-11.88 14.76s-11.88-4.77-11.88-14.76v-40.68h-9.54v39.15c0 17.1 5.58 24.75 21.42 24.75zM620.9 266v-25.65h11.25L643.04 266h10.62l-11.97-26.37c7.11-1.98 10.8-8.1 10.8-17.82 0-11.97-5.58-18.63-16.29-18.63h-24.84V266h9.54zm14.49-33.66H620.9v-20.79h14.49c4.5 0 6.93 2.25 6.93 7.47v5.85c0 5.22-2.43 7.47-6.93 7.47zM701.54 266v-8.37h-26.91v-19.44h24.3v-8.28h-24.3v-18.36h26.91v-8.37h-36.45V266h36.45zm32.94 0c14.85 0 23.49-9.27 23.49-31.41s-8.64-31.41-23.49-31.41h-20.7V266h20.7zm0-8.37h-11.16v-46.08h11.16c8.19 0 13.23 5.49 13.23 15.75v14.58c0 10.26-5.04 15.75-13.23 15.75z"/>
    </defs>
    <g fill="none" transform="translate(-391 -122)">
        <use fill="#FFF" xlink:href="#prefix__a"/>
        <use fill="url(#prefix__b)" xlink:href="#prefix__a"/>
    </g>
</svg>
