<svg xmlns="http://www.w3.org/2000/svg" width="297" height="144" viewBox="0 0 297 144">
    <defs>
        <linearGradient id="prefix__a" x1="50%" x2="50%" y1="0%" y2="100%">
            <stop offset="0%" stop-color="#191A1C"/>
            <stop offset="100%" stop-color="#191A1C" stop-opacity=".02"/>
        </linearGradient>
    </defs>
    <path fill="url(#prefix__a)" d="M426.25 186l4.86-17.37h21.15l4.86 17.37h9.63l-18.9-62.82H435.7L416.89 186h9.36zm23.76-25.2h-16.56l5.58-19.8 1.98-9.18h1.17l1.98 9.18 5.85 19.8zm46.17 26.28c10.71 0 16.92-5.13 20.88-14.31l-7.92-4.68c-2.25 7.38-6.3 10.62-12.96 10.62-8.46 0-13.5-6.3-13.5-16.56v-15.12c0-10.26 5.04-16.56 13.5-16.56 6.57 0 10.26 2.97 12.42 9.99l8.1-4.5c-3.87-9.27-9.81-13.86-20.52-13.86-14.58 0-23.76 9.63-23.76 32.49s9.18 32.49 23.76 32.49zm51.03 0c10.71 0 16.92-5.13 20.88-14.31l-7.92-4.68c-2.25 7.38-6.3 10.62-12.96 10.62-8.46 0-13.5-6.3-13.5-16.56v-15.12c0-10.26 5.04-16.56 13.5-16.56 6.57 0 10.26 2.97 12.42 9.99l8.1-4.5c-3.87-9.27-9.81-13.86-20.52-13.86-14.58 0-23.76 9.63-23.76 32.49s9.18 32.49 23.76 32.49zm67.23-1.08v-8.37h-26.91v-19.44h24.3v-8.28h-24.3v-18.36h26.91v-8.37h-36.45V186h36.45zm29.25 1.08c13.14 0 20.79-6.75 20.79-19.26 0-10.44-4.68-15.3-16.65-18l-5.13-1.17c-6.03-1.44-8.64-3.87-8.64-9.09 0-6.39 3.42-9.09 10.26-9.09 6.03 0 9.81 2.25 13.05 6.84l6.57-5.76c-4.5-6.48-10.53-9.45-19.44-9.45-12.51 0-19.98 6.12-19.98 17.73 0 9.99 5.22 15.3 16.47 17.82l5.13 1.08c6.39 1.53 8.82 4.23 8.82 9.72 0 6.84-3.87 10.26-11.16 10.26-6.12 0-10.89-2.88-14.58-8.01l-6.57 6.03c4.86 6.66 11.79 10.35 21.06 10.35zm48.42 0c13.14 0 20.79-6.75 20.79-19.26 0-10.44-4.68-15.3-16.65-18l-5.13-1.17c-6.03-1.44-8.64-3.87-8.64-9.09 0-6.39 3.42-9.09 10.26-9.09 6.03 0 9.81 2.25 13.05 6.84l6.57-5.76c-4.5-6.48-10.53-9.45-19.44-9.45-12.51 0-19.98 6.12-19.98 17.73 0 9.99 5.22 15.3 16.47 17.82l5.13 1.08c6.39 1.53 8.82 4.23 8.82 9.72 0 6.84-3.87 10.26-11.16 10.26-6.12 0-10.89-2.88-14.58-8.01l-6.57 6.03c4.86 6.66 11.79 10.35 21.06 10.35zM442.63 266c14.85 0 23.49-9.27 23.49-31.41s-8.64-31.41-23.49-31.41h-20.7V266h20.7zm0-8.37h-11.16v-46.08h11.16c8.19 0 13.23 5.49 13.23 15.75v14.58c0 10.26-5.04 15.75-13.23 15.75zm71.73 8.37v-8.37h-26.91v-19.44h24.3v-8.28h-24.3v-18.36h26.91v-8.37h-36.45V266h36.45zm21.42 0v-37.53l-.72-11.88h1.17l4.77 11.7L559.72 266h11.07v-62.82h-9.18v37.53l.72 11.88h-1.17l-4.86-11.7-18.72-37.71H526.6V266h9.18zm71.73 0v-7.65h-7.65v-47.52h7.65v-7.65h-24.84v7.65h7.65v47.52h-7.65V266h24.84zm48.42 0v-8.37h-26.91v-19.44h24.3v-8.28h-24.3v-18.36h26.91v-8.37h-36.45V266h36.45zm32.94 0c14.85 0 23.49-9.27 23.49-31.41s-8.64-31.41-23.49-31.41h-20.7V266h20.7zm0-8.37h-11.16v-46.08h11.16c8.19 0 13.23 5.49 13.23 15.75v14.58c0 10.26-5.04 15.75-13.23 15.75z" transform="translate(-416 -122)"/>
</svg>
