<svg xmlns="http://www.w3.org/2000/svg" width="46" height="24" viewBox="0 0 46 24">
    <path fill="#00ACAD" d="M42.96 3.98C39.06-.352 32.606-1.249 27.653 1.79c-1.05.647-2.05 1.544-2.951 2.64L23 6.52l-4.352 5.428-2.652 3.237c-.4.498-.85.897-1.25 1.146-2.152 1.295-4.903.896-6.604-.946-1.751-1.943-1.751-4.93 0-6.873 1-1.096 2.401-1.693 3.852-1.693.95 0 1.901.299 2.752.747.45.249.85.647 1.25 1.145l.712.87 4.399-5.37c-.851-.994-1.782-1.82-2.76-2.422C13.395-1.249 6.941-.352 3.04 3.98c-4.052 4.532-4.052 11.554 0 16.036C5.39 22.656 8.692 24 11.994 24c2.201 0 4.352-.598 6.353-1.843 1.051-.647 2.052-1.543 2.952-2.639L23 17.426l4.402-5.428 2.652-3.237c.4-.498.85-.896 1.25-1.145 2.152-1.295 4.903-.897 6.604.946 1.751 1.942 1.751 4.93 0 6.872-1.7 1.843-4.452 2.241-6.603.947-.45-.25-.851-.648-1.251-1.146l-.74-.902-4.444 5.426c.857 1.006 1.796 1.84 2.782 2.448 4.953 3.038 11.407 2.142 15.309-2.191 4.052-4.532 4.052-11.554 0-16.036z"/>
</svg>
