<svg xmlns="http://www.w3.org/2000/svg" width="49" height="46" viewBox="0 0 49 46">
    <path fill="#C03995" d="M17.135 24.614h8.016v8.222h-8.016v-8.222zm17.486 2.724h8.317v-5.952H34.62v5.952zm0 4.186h8.317v-2.37H34.62v2.37zM6.563 32.836h8.017v-8.222H6.563v8.222zm18.588 6.607H5.361C2.405 39.443 0 37.022 0 34.046V5.498C0 2.47 2.455 0 5.461 0h31.314c3.006 0 5.461 2.471 5.461 5.498v6.456H38.73V10.39H3.557v23.05c0 1.363 1.103 2.472 2.455 2.472h19.14v3.531zM14.38 5.346c0 .959.752 1.766 1.754 1.766.952 0 1.754-.757 1.754-1.766 0-1.008-.752-1.765-1.754-1.765s-1.754.807-1.754 1.765zm-5.06 0c0 .959.752 1.766 1.754 1.766.851 0 1.553-.605 1.703-1.412 0-.101.05-.253.05-.354 0-.1 0-.252-.05-.353-.15-.807-.852-1.412-1.703-1.412-1.002 0-1.754.807-1.754 1.765zm-5.06 0c0 .959.751 1.766 1.753 1.766.952 0 1.754-.757 1.754-1.766 0-1.008-.752-1.765-1.754-1.765S4.26 4.388 4.26 5.346zM25.15 18.864c0-2.068.902-3.884 2.305-5.195H6.563v7.818h18.588v-2.623zM49 42.469V18.864c0-1.917-1.553-3.53-3.507-3.53H32.015c-1.904 0-3.507 1.563-3.507 3.53v23.605c0 1.917 1.553 3.531 3.507 3.531h13.478C47.397 46 49 44.436 49 42.47zm-3.507-23.706c.05 0 .1.05.1.101v23.605c0 .05-.05.101-.1.101H32.015c-.05 0-.1-.05-.1-.1V18.863c0-.05.05-.1.1-.1h13.478zM34.62 35.761h8.317v-2.37H34.62v2.37zm0 4.186h8.317v-2.37H34.62v2.37z"/>
</svg>
