<svg xmlns="http://www.w3.org/2000/svg" width="40" height="46" viewBox="0 0 40 46">
    <path fill="#FA9E4A" d="M32.126 20.48h2.218c.368.9 1.25 1.536 2.281 1.536 1.353 0 2.457-1.104 2.457-2.457 0-1.352-1.104-2.456-2.457-2.456-1.03 0-1.913.635-2.281 1.536h-2.218c-.12-1.628-.542-3.183-1.223-4.581l1.923-1.114c.423.332.956.525 1.518.525.432 0 .855-.11 1.223-.331 1.178-.672 1.583-2.18.902-3.358-.442-.755-1.251-1.233-2.135-1.233-.432 0-.855.11-1.232.331-.893.515-1.334 1.509-1.206 2.475l-1.922 1.113c-.893-1.316-2.034-2.456-3.35-3.349l1.114-1.923c.11.019.23.028.34.028.874 0 1.693-.47 2.126-1.233.671-1.177.276-2.677-.902-3.358-.377-.211-.8-.331-1.224-.331-.874 0-1.692.47-2.134 1.224-.515.892-.405 1.978.193 2.741l-1.104 1.923c-1.398-.68-2.944-1.113-4.572-1.233V4.738c.901-.368 1.536-1.251 1.536-2.282C21.997 1.104 20.893 0 19.541 0c-1.353 0-2.457 1.104-2.457 2.456 0 1.03.635 1.914 1.537 2.282v2.226c-1.629.12-3.174.543-4.573 1.233l-1.113-1.923c.598-.763.709-1.849.193-2.741-.441-.755-1.25-1.224-2.125-1.224-.432 0-.855.11-1.223.331-1.187.663-1.583 2.162-.911 3.34.432.764 1.251 1.233 2.125 1.233.12 0 .23-.01.34-.028l1.123 1.923C11.14 10 10 11.141 9.108 12.457l-1.923-1.113c.129-.957-.313-1.95-1.205-2.475-.377-.212-.8-.331-1.224-.331-.874 0-1.692.469-2.134 1.232-.672 1.178-.276 2.687.902 3.358.377.212.8.332 1.223.332.552 0 1.086-.194 1.518-.525l1.923 1.113c-.68 1.408-1.113 2.954-1.224 4.582H4.738c-.368-.902-1.251-1.536-2.282-1.536C1.104 17.094 0 18.198 0 19.55c0 1.352 1.104 2.456 2.456 2.456 1.03 0 1.914-.634 2.282-1.536h2.217c.12 1.628.543 3.183 1.224 4.582l-1.923 1.113c-.423-.331-.957-.525-1.518-.525-.432 0-.856.11-1.233.332-1.168.68-1.573 2.19-.901 3.358.441.754 1.25 1.232 2.134 1.232.432 0 .856-.11 1.224-.33.892-.516 1.343-1.51 1.205-2.476l1.923-1.113c.892 1.316 2.033 2.457 3.348 3.349l-1.113 1.932c-.11-.018-.23-.028-.34-.028-.874 0-1.693.47-2.125 1.224-.332.57-.414 1.233-.249 1.868.166.634.58 1.168 1.141 1.49.377.22.8.331 1.233.331.874 0 1.693-.469 2.125-1.233.515-.892.405-1.978-.193-2.741l1.113-1.923c.589.285 1.214.534 1.85.727L13.008 44.16H7.24c-.506 0-.92.414-.92.92s.414.92.92.92h24.592c.506 0 .92-.414.92-.92s-.414-.92-.92-.92h-5.76l-2.888-12.512c.635-.193 1.26-.432 1.85-.727l1.112 1.923c-.598.764-.708 1.85-.193 2.742.442.754 1.251 1.232 2.125 1.232.433 0 .856-.12 1.233-.33 1.169-.682 1.573-2.181.902-3.359-.442-.754-1.251-1.223-2.125-1.223-.11 0-.23.009-.34.027l-1.114-1.932c1.316-.892 2.456-2.033 3.349-3.349l1.923 1.114c-.138.966.312 1.96 1.205 2.474.377.212.8.332 1.223.332.874 0 1.693-.47 2.135-1.233.671-1.169.267-2.677-.902-3.358-.377-.212-.8-.331-1.223-.331-.552 0-1.086.193-1.518.524l-1.923-1.113c.671-1.408 1.104-2.953 1.223-4.582zm1.896-10.01c.092-.056.202-.083.303-.083.221 0 .423.12.534.313.175.294.073.68-.23.846-.092.055-.203.083-.304.083-.22 0-.423-.12-.533-.313-.166-.294-.065-.672.23-.846zm-6.477-6.026c.11-.194.313-.313.543-.313.11 0 .211.027.303.083.295.165.396.552.221.846-.11.193-.313.313-.534.313-.11 0-.211-.028-.312-.083-.286-.175-.387-.552-.221-.846zM10.47 5.06c-.175-.294-.074-.672.22-.846.092-.056.203-.083.304-.083.22 0 .423.12.534.303.174.295.073.681-.23.847-.092.055-.203.083-.313.083-.212.009-.405-.11-.515-.304zm-5.723 6.569c-.11 0-.211-.028-.303-.083-.295-.166-.396-.552-.23-.846.11-.194.312-.313.533-.313.11 0 .212.027.304.083.294.174.395.552.23.846-.11.193-.313.313-.534.313zm.304 17.01c-.092.056-.203.083-.304.083-.22 0-.423-.12-.533-.312-.166-.295-.065-.681.22-.847.092-.055.203-.083.304-.083.22 0 .423.12.534.313.184.304.082.681-.221.847zm6.486 6.036c-.11.193-.313.313-.534.313-.11 0-.211-.028-.313-.083-.138-.083-.248-.212-.285-.377-.046-.157-.018-.332.065-.47.11-.193.312-.303.533-.303.11 0 .212.027.304.083.294.165.395.542.23.837zm17.075-.626c.175.295.074.681-.23.847-.092.055-.202.082-.313.082-.22 0-.423-.12-.533-.303-.175-.295-.074-.681.22-.847.092-.055.203-.082.313-.082.23 0 .442.12.543.303zm5.722-6.56c.11 0 .212.028.304.083.294.175.396.552.23.847-.11.193-.313.313-.534.313-.11 0-.211-.028-.303-.083-.295-.166-.396-.552-.23-.847.11-.202.313-.312.533-.312zm-5.032-3.357l-1.113-.644c.423-.939.708-1.95.81-3.018h1.287c-.12 1.306-.46 2.54-.984 3.662zm-5.161 1.554l-2.089-3.615 3.616 2.088c-.442.58-.957 1.095-1.527 1.527zm-4.6 10.35c.34 0 .616.276.616.617 0 .34-.276.616-.616.616-.34 0-.617-.276-.617-.616 0-.34.276-.617.617-.617zM13.414 24.16l3.606-2.088-2.08 3.615c-.579-.432-1.085-.947-1.526-1.527zm1.527-10.736l2.088 3.615-3.606-2.088c.432-.57.938-1.086 1.518-1.527zm10.718 1.536l-3.616 2.089 2.098-3.616c.57.432 1.085.948 1.518 1.527zm-5.594 4.278c0 .01 0 .01.01.019 0 .009.009.009.009.018.046.083.073.184.073.294 0 .102-.027.203-.073.286 0 .009-.01.009-.01.018 0 .01 0 .01-.009.018-.092.157-.248.258-.432.286-.028 0-.055.009-.092.009-.028 0-.055 0-.092-.01-.295-.045-.525-.303-.525-.607 0-.34.276-.616.617-.616.22-.01.414.101.524.285zm6.523-2.686c.276.653.47 1.352.561 2.088h-4.177l3.616-2.088zm-6.127-.433v-4.176c.736.092 1.435.276 2.088.56l-2.088 3.616zm-1.84 0l-2.089-3.615c.654-.276 1.353-.47 2.089-.561v4.176zm-2.512 2.521h-4.177c.092-.736.276-1.435.562-2.088l3.615 2.088zm0 1.84l-3.615 2.089c-.276-.654-.47-1.353-.562-2.089h4.177zm1.297 4.619l-.395 1.692c-.166-.055-.322-.12-.479-.184l.874-1.508zm1.215 3.919v1.288l-.515-.055.294-1.26c.074.018.147.027.22.027zm1.84 0l.22-.028.295 1.26c-.175.019-.34.047-.515.056v-1.288zm1.214-3.92l.874 1.51c-.156.064-.322.128-.478.183l-.396-1.692zm1.297-4.618h4.168c-.092.736-.276 1.435-.561 2.089l-3.607-2.089zm13.653-1.536c.34 0 .617.276.617.616 0 .34-.276.617-.617.617-.34 0-.616-.276-.616-.617-.01-.34.276-.616.616-.616zm-6.348-.304H28.99c-.101-1.067-.377-2.079-.81-3.017l1.114-.644c.533 1.131.874 2.364.984 3.661zm-1.895-5.253l-1.113.644c-.607-.846-1.353-1.592-2.199-2.208l.644-1.113c1.03.727 1.932 1.637 2.668 2.677zm-4.269-3.597l-.644 1.113c-.929-.423-1.95-.708-3.008-.81V8.804c1.297.11 2.53.451 3.652.985zM19.541 1.84c.34 0 .616.276.616.616 0 .34-.276.617-.616.617-.34 0-.617-.276-.617-.617 0-.34.276-.616.617-.616zm-.92 6.964v1.288c-1.067.102-2.08.387-3.009.81l-.644-1.113c1.123-.534 2.356-.874 3.653-.985zm-5.244 1.905l.644 1.113c-.847.607-1.592 1.352-2.199 2.208l-1.113-.644c.717-1.04 1.628-1.95 2.668-2.677zM9.78 14.978l1.113.644c-.423.938-.709 1.95-.81 3.017H8.795c.12-1.297.46-2.53.985-3.661zm-7.324 5.198c-.34 0-.616-.276-.616-.617 0-.34.276-.616.616-.616.34 0 .617.276.617.616 0 .34-.276.617-.617.617zm6.348.303h1.288c.102 1.067.378 2.08.81 3.018l-1.113.644c-.534-1.132-.874-2.365-.985-3.662zm1.896 5.253l1.113-.644c.607.847 1.352 1.592 2.199 2.208l-.644 1.114c-1.03-.736-1.942-1.638-2.668-2.678zm4.268 3.598l.644-1.114c.322.148.654.276.985.387l-.285 1.251c-.46-.147-.911-.322-1.344-.524zm9.219 14.83h-9.292l2.797-12.107c.303.046.616.083.929.101v2.226c-.902.368-1.537 1.252-1.537 2.282 0 1.352 1.104 2.456 2.457 2.456 1.352 0 2.456-1.104 2.456-2.456 0-1.03-.635-1.914-1.536-2.282v-2.217c.313-.018.625-.055.929-.101l2.797 12.098zM22.77 29.854l-.285-1.251c.34-.11.671-.24.984-.387l.644 1.114c-.432.202-.883.377-1.343.524zm2.935-1.454l-.644-1.113c.846-.607 1.591-1.352 2.199-2.208l1.113.644c-.727 1.049-1.629 1.95-2.668 2.677z"/>
</svg>
